<?xml version="1.0" standalone="no"?><!DOCTYPE svg PUBLIC "-//W3C//DTD SVG 1.1//EN" "http://www.w3.org/Graphics/SVG/1.1/DTD/svg11.dtd"><svg t="1491529111752" class="icon" style="" viewBox="0 0 1024 1024" version="1.1" xmlns="http://www.w3.org/2000/svg" p-id="4235" xmlns:xlink="http://www.w3.org/1999/xlink" width="32" height="32"><defs><style type="text/css"></style></defs><path d="M489.366 923.952c-12.29 0-24.575-4.672-33.953-14.048l-351.967-351.968c-18.752-18.721-18.752-49.12 0-67.872l351.967-352.001c18.752-18.752 49.121-18.752 67.872 0 18.751 18.721 18.751 49.12 0 67.872l-318.016 318.049 318.016 318.016c18.751 18.752 18.751 49.12 0 67.872-9.344 9.408-21.633 14.080-33.92 14.080zM864.533 923.953c-12.29 0-24.575-4.672-33.953-14.048l-351.967-351.968c-18.752-18.721-18.752-49.12 0-67.872l351.967-352.001c18.752-18.752 49.121-18.752 67.872 0 18.751 18.721 18.751 49.12 0 67.872l-318.016 318.049 318.016 318.016c18.751 18.752 18.751 49.12 0 67.872-9.344 9.408-21.633 14.080-33.92 14.080z" p-id="4236" fill="#ffffff"></path></svg>