<?xml version="1.0" standalone="no"?><!DOCTYPE svg PUBLIC "-//W3C//DTD SVG 1.1//EN" "http://www.w3.org/Graphics/SVG/1.1/DTD/svg11.dtd"><svg t="1491656689412" class="icon" style="" viewBox="0 0 1024 1024" version="1.1" xmlns="http://www.w3.org/2000/svg" p-id="4547" xmlns:xlink="http://www.w3.org/1999/xlink" width="32" height="32"><defs><style type="text/css"></style></defs><path d="M981.333333 554.666667 936.512 554.666667C916.501333 756.224 756.224 916.458667 554.666667 936.490667L554.666667 981.333333C554.666667 1004.906667 535.573333 1024 512 1024 488.426667 1024 469.333333 1004.906667 469.333333 981.333333L469.333333 936.490667C267.776 916.458667 107.498667 756.224 87.488 554.666667L42.666667 554.666667C19.093333 554.666667 0 535.573333 0 512 0 488.426667 19.093333 469.333333 42.666667 469.333333L87.488 469.333333C107.498667 267.776 267.776 107.541333 469.333333 87.509333L469.333333 42.666667C469.333333 19.093333 488.426667 0 512 0 535.573333 0 554.666667 19.093333 554.666667 42.666667L554.666667 87.509333C756.224 107.541333 916.501333 267.776 936.512 469.333333L981.333333 469.333333C1004.906667 469.333333 1024 488.426667 1024 512 1024 535.573333 1004.906667 554.666667 981.333333 554.666667ZM512 170.666667C323.477333 170.666667 170.666667 323.477333 170.666667 512 170.666667 700.522667 323.477333 853.333333 512 853.333333 700.522667 853.333333 853.333333 700.522667 853.333333 512 853.333333 323.477333 700.522667 170.666667 512 170.666667ZM512 682.666667C417.749333 682.666667 341.333333 606.250667 341.333333 512 341.333333 417.749333 417.749333 341.333333 512 341.333333 606.250667 341.333333 682.666667 417.749333 682.666667 512 682.666667 606.250667 606.250667 682.666667 512 682.666667Z" p-id="4548" fill="#707070"></path></svg>